<svg width="50" height="50" viewBox="0 0 50 50" fill="none" xmlns="http://www.w3.org/2000/svg">
<path d="M26.7521 20.6208L29.6719 8.9406L35.5104 6.02081M26.7521 20.6208L35.5104 17.7L41.35 11.8604L35.5104 6.02081M26.7521 20.6208L35.5104 6.02081" stroke="white" stroke-linecap="round" stroke-linejoin="round"/>
<path d="M41.3511 11.8604L44.2709 23.5417M44.2709 23.5417V32.301L41.3511 41.0604L35.5115 43.9802L26.7511 38.1406M44.2709 23.5417L35.5115 17.7L32.5917 29.3802M44.2709 23.5417L32.5917 29.3802M26.7511 38.1406V20.6208L32.5917 29.3802M26.7511 38.1406L32.5917 29.3802" stroke="white" stroke-linecap="round" stroke-linejoin="round"/>
<path d="M26.7521 38.1396H35.5115L44.2708 32.3" stroke="white" stroke-linecap="round" stroke-linejoin="round"/>
<path d="M38.4313 26.4604L35.5104 38.1396L32.5907 29.3791M23.2479 20.6208L20.3281 8.9406L14.4896 6.02081M23.2479 20.6208L14.4896 17.7L8.65002 11.8604L14.4896 6.02081M23.2479 20.6208L14.4896 6.02081" stroke="white" stroke-linecap="round" stroke-linejoin="round"/>
<path d="M8.64892 11.8604L5.72913 23.5417M5.72913 23.5417V32.301L8.64892 41.0604L14.4885 43.9802L23.2489 38.1406M5.72913 23.5417L14.4885 17.7L17.4083 29.3802M5.72913 23.5417L17.4083 29.3802M23.2489 38.1406V20.6208L17.4083 29.3802M23.2489 38.1406L17.4083 29.3802" stroke="white" stroke-linecap="round" stroke-linejoin="round"/>
<path d="M23.2479 38.1396H14.4895L5.72913 32.3" stroke="white" stroke-linecap="round" stroke-linejoin="round"/>
<path d="M11.5687 26.4604L14.4885 38.1396L17.4083 29.3791" stroke="white" stroke-linecap="round" stroke-linejoin="round"/>
</svg>
