<svg width="194" height="51" viewBox="0 0 194 51" fill="none" xmlns="http://www.w3.org/2000/svg">
<path d="M26.8022 21.5053L29.722 9.82506L35.5606 6.90527M26.8022 21.5053L35.5606 18.5844L41.4002 12.7448L35.5606 6.90527M26.8022 21.5053L35.5606 6.90527" stroke="#7B76F1" stroke-linecap="round" stroke-linejoin="round"/>
<path d="M41.401 12.7448L44.3208 24.4261M44.3208 24.4261V33.1855L41.401 41.9448L35.5614 44.8646L26.801 39.0251M44.3208 24.4261L35.5614 18.5844L32.6417 30.2646M44.3208 24.4261L32.6417 30.2646M26.801 39.0251V21.5053L32.6417 30.2646M26.801 39.0251L32.6417 30.2646" stroke="#7B76F1" stroke-linecap="round" stroke-linejoin="round"/>
<path d="M26.8022 39.024H35.5616L44.321 33.1844" stroke="#7B76F1" stroke-linecap="round" stroke-linejoin="round"/>
<path d="M38.4812 27.3448L35.5604 39.024L32.6406 30.2636M23.2979 21.5053L20.3781 9.82506L14.5395 6.90527M23.2979 21.5053L14.5395 18.5844L8.69995 12.7448L14.5395 6.90527M23.2979 21.5053L14.5395 6.90527" stroke="#7B76F1" stroke-linecap="round" stroke-linejoin="round"/>
<path d="M8.69909 12.7448L5.7793 24.4261M5.7793 24.4261V33.1855L8.69909 41.9448L14.5387 44.8646L23.2991 39.0251M5.7793 24.4261L14.5387 18.5844L17.4585 30.2646M5.7793 24.4261L17.4585 30.2646M23.2991 39.0251V21.5053L17.4585 30.2646M23.2991 39.0251L17.4585 30.2646" stroke="#7B76F1" stroke-linecap="round" stroke-linejoin="round"/>
<path d="M23.298 39.024H14.5397L5.7793 33.1844" stroke="#7B76F1" stroke-linecap="round" stroke-linejoin="round"/>
<path d="M11.6189 27.3448L14.5387 39.024L17.4585 30.2636" stroke="#7B76F1" stroke-linecap="round" stroke-linejoin="round"/>
<path d="M54.498 38.3844L62.31 17.9444H65.362L73.174 38.3844H70.71L63.85 19.8764H63.794L56.962 38.3844H54.498ZM58.11 32.7564V30.7124H69.59V32.7564H58.11ZM83.4516 23.5444C85.3929 23.5444 86.9049 24.2164 87.9876 25.5604C89.0702 26.8858 89.6116 28.7338 89.6116 31.1044C89.6116 33.4751 89.0702 35.3324 87.9876 36.6764C86.9049 38.0018 85.3929 38.6644 83.4516 38.6644C82.3876 38.6644 81.4076 38.4684 80.5116 38.0764C79.6342 37.6658 78.9436 37.1151 78.4396 36.4244H78.3836V44.2644H76.1716V23.8244H78.2996V25.7844H78.3556C78.8782 25.0751 79.5876 24.5244 80.4836 24.1324C81.3982 23.7404 82.3876 23.5444 83.4516 23.5444ZM82.9756 25.4204C82.0982 25.4204 81.3142 25.6071 80.6236 25.9804C79.9329 26.3351 79.3822 26.8298 78.9716 27.4644C78.5796 28.0804 78.3836 28.8084 78.3836 29.6484V32.5604C78.3836 33.3818 78.5796 34.1098 78.9716 34.7444C79.3822 35.3791 79.9329 35.8831 80.6236 36.2564C81.3142 36.6111 82.0982 36.7884 82.9756 36.7884C84.4129 36.7884 85.5142 36.3031 86.2796 35.3324C87.0636 34.3431 87.4556 32.9338 87.4556 31.1044C87.4556 29.2751 87.0636 27.8751 86.2796 26.9044C85.5142 25.9151 84.4129 25.4204 82.9756 25.4204ZM93.1794 38.3844V23.8244H95.3074L95.3354 26.8764H95.3914C95.8207 26.1858 96.3714 25.5978 97.0434 25.1124C97.7154 24.6084 98.4807 24.2258 99.3394 23.9644C100.198 23.6844 101.103 23.5444 102.055 23.5444V25.5044C100.823 25.5044 99.7034 25.7564 98.6954 26.2604C97.6874 26.7644 96.8847 27.4364 96.2874 28.2764C95.7087 29.1164 95.4194 30.0591 95.4194 31.1044V38.3844H93.1794ZM109.976 38.6644C107.643 38.6644 105.841 38.0111 104.572 36.7044C103.303 35.3978 102.668 33.5311 102.668 31.1044C102.668 28.7524 103.275 26.9044 104.488 25.5604C105.72 24.2164 107.419 23.5444 109.584 23.5444C111.656 23.5444 113.243 24.1791 114.344 25.4484C115.445 26.6991 115.996 28.5004 115.996 30.8524C115.996 31.0391 115.996 31.2351 115.996 31.4404C115.996 31.6458 115.987 31.8231 115.968 31.9724H103.872V30.1804H114.344L113.924 30.7684C113.924 28.9578 113.56 27.6044 112.832 26.7084C112.104 25.8124 111.021 25.3644 109.584 25.3644C108.053 25.3644 106.877 25.8498 106.056 26.8204C105.235 27.7724 104.824 29.1351 104.824 30.9084V31.4684C104.824 33.2231 105.263 34.5484 106.14 35.4444C107.017 36.3404 108.305 36.7884 110.004 36.7884C110.9 36.7884 111.768 36.6764 112.608 36.4524C113.448 36.2098 114.204 35.8644 114.876 35.4164L115.352 37.1804C114.643 37.6471 113.821 38.0111 112.888 38.2724C111.973 38.5338 111.003 38.6644 109.976 38.6644ZM119.484 38.3844V23.8244H121.64V25.9804H121.696C122.275 25.1778 123.003 24.5711 123.88 24.1604C124.776 23.7498 125.784 23.5444 126.904 23.5444C128.677 23.5444 129.984 24.0764 130.824 25.1404C131.664 26.1858 132.084 27.8004 132.084 29.9844V38.3844H129.872V30.3764C129.872 28.6964 129.583 27.4551 129.004 26.6524C128.425 25.8311 127.539 25.4204 126.344 25.4204C125.448 25.4204 124.645 25.6258 123.936 26.0364C123.245 26.4284 122.695 26.9791 122.284 27.6884C121.892 28.3791 121.696 29.1818 121.696 30.0964V38.3844H119.484ZM138.543 38.3844V19.9884H131.207V17.9444H148.203V19.9884H140.867V38.3844H138.543ZM153.234 38.6644C150.901 38.6644 149.099 38.0111 147.83 36.7044C146.561 35.3978 145.926 33.5311 145.926 31.1044C145.926 28.7524 146.533 26.9044 147.746 25.5604C148.978 24.2164 150.677 23.5444 152.842 23.5444C154.914 23.5444 156.501 24.1791 157.602 25.4484C158.703 26.6991 159.254 28.5004 159.254 30.8524C159.254 31.0391 159.254 31.2351 159.254 31.4404C159.254 31.6458 159.245 31.8231 159.226 31.9724H147.13V30.1804H157.602L157.182 30.7684C157.182 28.9578 156.818 27.6044 156.09 26.7084C155.362 25.8124 154.279 25.3644 152.842 25.3644C151.311 25.3644 150.135 25.8498 149.314 26.8204C148.493 27.7724 148.082 29.1351 148.082 30.9084V31.4684C148.082 33.2231 148.521 34.5484 149.398 35.4444C150.275 36.3404 151.563 36.7884 153.262 36.7884C154.158 36.7884 155.026 36.6764 155.866 36.4524C156.706 36.2098 157.462 35.8644 158.134 35.4164L158.61 37.1804C157.901 37.6471 157.079 38.0111 156.146 38.2724C155.231 38.5338 154.261 38.6644 153.234 38.6644ZM169.347 38.6644C167.76 38.6644 166.397 38.3658 165.259 37.7684C164.12 37.1524 163.243 36.2844 162.627 35.1644C162.029 34.0258 161.731 32.6724 161.731 31.1044C161.731 29.5364 162.029 28.1924 162.627 27.0724C163.243 25.9338 164.12 25.0658 165.259 24.4684C166.397 23.8524 167.76 23.5444 169.347 23.5444C170.131 23.5444 170.877 23.6284 171.587 23.7964C172.296 23.9458 172.987 24.1978 173.659 24.5524L173.239 26.3444C172.604 26.0271 171.979 25.7938 171.363 25.6444C170.747 25.4951 170.121 25.4204 169.487 25.4204C167.751 25.4204 166.397 25.9244 165.427 26.9324C164.456 27.9218 163.971 29.3124 163.971 31.1044C163.971 32.8778 164.456 34.2684 165.427 35.2764C166.397 36.2844 167.751 36.7884 169.487 36.7884C170.121 36.7884 170.747 36.7138 171.363 36.5644C171.979 36.4151 172.604 36.1818 173.239 35.8644L173.659 37.6564C172.987 37.9924 172.296 38.2444 171.587 38.4124C170.877 38.5804 170.131 38.6644 169.347 38.6644ZM177.918 38.3844V17.9444H180.13V25.7844H180.186C180.746 25.0564 181.464 24.5058 182.342 24.1324C183.219 23.7404 184.227 23.5444 185.366 23.5444C187.158 23.5444 188.464 24.0204 189.286 24.9724C190.126 25.9244 190.536 27.4084 190.518 29.4244V38.3844H188.334V29.8164C188.352 28.3044 188.072 27.1938 187.494 26.4844C186.915 25.7751 186.019 25.4204 184.806 25.4204C183.891 25.4204 183.079 25.6071 182.37 25.9804C181.679 26.3351 181.138 26.8298 180.746 27.4644C180.354 28.0804 180.148 28.8084 180.13 29.6484V38.3844H177.918Z" fill="#7B76F1"/>
</svg>
