<svg width="441" height="390" viewBox="0 0 441 390" fill="none" xmlns="http://www.w3.org/2000/svg">
<mask id="mask0_1_89" style="mask-type:luminance" maskUnits="userSpaceOnUse" x="0" y="0" width="441" height="390">
<rect x="0.8685" y="0.679993" width="439.337" height="389.143" fill="white"/>
</mask>
<g mask="url(#mask0_1_89)">
<ellipse cx="225.092" cy="195.251" rx="185.164" ry="194.571" fill="#F1F0FF"/>
<rect x="214.313" y="110.425" width="113.541" height="184.755" fill="white"/>
<path d="M191.556 223.191H307.973" stroke="black"/>
<path d="M191.556 235.273H307.973" stroke="black"/>
<path d="M191.556 247.355H307.973" stroke="black"/>
<path d="M191.556 259.437H307.973" stroke="black"/>
<ellipse cx="271.084" cy="164.291" rx="29.7032" ry="31.2123" fill="#F2F2F2"/>
<rect opacity="0.7" x="307.973" y="176.122" width="46.9493" height="45.8114" fill="#98B9F2"/>
<path d="M320.157 198.684L326.435 196.224V197.191L321.301 199.13L326.435 201.075V202.041L320.157 199.576V198.684ZM331.995 194.049H332.811L330.308 201.939H329.492L331.995 194.049ZM342.044 199.587L335.765 202.041V201.075L340.894 199.13L335.765 197.191V196.224L342.044 198.684V199.587Z" fill="white"/>
<rect x="18.1301" y="19.5584" width="253.433" height="175.19" stroke="black"/>
<path d="M18.1301 28.872H271.563" stroke="black"/>
<rect x="36.5744" y="44.4771" width="76.1738" height="80.0439" stroke="black"/>
<path d="M127.36 51.5259H243.776" stroke="black"/>
<path d="M127.36 63.6078H243.776" stroke="black"/>
<path d="M127.36 75.6896H243.776" stroke="black"/>
<path d="M127.36 87.7715H243.776" stroke="black"/>
<path opacity="0.44" fill-rule="evenodd" clip-rule="evenodd" d="M74.6613 65.6208L53.9171 103.373H95.4056L74.6613 65.6208Z" fill="#918EF4"/>
<ellipse cx="23.6397" cy="24.3406" rx="2.15563" ry="2.26515" fill="#AB8DE5"/>
<ellipse cx="31.0649" cy="24.3406" rx="2.15563" ry="2.26515" fill="#73E5E2"/>
<ellipse cx="38.4902" cy="24.3406" rx="2.15563" ry="2.26515" fill="#50B89D"/>
<path fill-rule="evenodd" clip-rule="evenodd" d="M129.754 162.403L136.941 155.733H129.611L129.754 162.403Z" fill="#AB8DE5"/>
<path fill-rule="evenodd" clip-rule="evenodd" d="M122.569 143.651C122.569 140.106 123.762 137.08 126.147 134.574C128.532 132.067 131.412 130.814 134.785 130.814H165.926C169.299 130.814 172.178 132.067 174.564 134.574C176.949 137.08 178.142 140.106 178.142 143.651C178.142 147.195 176.949 150.221 174.564 152.728C172.178 155.234 169.299 156.487 165.926 156.487H134.785C131.412 156.487 128.532 155.234 126.147 152.728C123.762 150.221 122.569 147.195 122.569 143.651Z" fill="#AB8DE5"/>
<ellipse cx="142.93" cy="143.651" rx="2.15563" ry="2.26515" fill="white"/>
<ellipse cx="150.355" cy="143.651" rx="2.15562" ry="2.26515" fill="white"/>
<ellipse cx="157.781" cy="143.651" rx="2.15562" ry="2.26515" fill="white"/>
<path fill-rule="evenodd" clip-rule="evenodd" d="M357.318 86.8897L350.131 80.2198H357.461L357.318 86.8897Z" fill="#98B9F2"/>
<path fill-rule="evenodd" clip-rule="evenodd" d="M364.504 68.138C364.504 71.6828 363.311 74.7085 360.926 77.2151C358.54 79.7217 355.661 80.9749 352.288 80.9749H321.147C317.774 80.9749 314.895 79.7216 312.509 77.2151C310.124 74.7085 308.931 71.6828 308.931 68.138C308.931 64.5932 310.124 61.5675 312.509 59.0609C314.895 56.5544 317.774 55.3011 321.147 55.3011L352.288 55.3011C355.661 55.3011 358.54 56.5544 360.926 59.0609C363.311 61.5675 364.504 64.5932 364.504 68.138Z" fill="#98B9F2"/>
<ellipse cx="344.143" cy="68.138" rx="2.15563" ry="2.26515" fill="white"/>
<ellipse cx="336.716" cy="68.138" rx="2.15563" ry="2.26515" fill="white"/>
<ellipse cx="329.291" cy="68.138" rx="2.15563" ry="2.26515" fill="white"/>
<ellipse cx="353.485" cy="22.0756" rx="2.15563" ry="2.26515" fill="#918EF4"/>
<ellipse cx="358.036" cy="31.3883" rx="2.15563" ry="2.26515" fill="#918EF4"/>
<ellipse cx="308.451" cy="123.263" rx="3.35389" ry="3.52429" fill="#918EF4"/>
<ellipse cx="328.094" cy="135.345" rx="3.35389" ry="3.52429" fill="#918EF4"/>
<ellipse cx="26.275" cy="139.372" rx="3.35389" ry="3.52429" fill="#F98B67"/>
<path fill-rule="evenodd" clip-rule="evenodd" d="M316.212 300.34V299.837L315.063 298.327L312.403 294.934L309.577 291.34C309.577 291.34 306.856 289.362 306.157 289.019C303.662 287.663 300.907 286.917 298.099 286.837C296.255 286.837 289.36 287.129 289.347 288.347C289.347 290.154 299.003 296.996 306.081 300.319C309.189 300.34 316.212 300.34 316.212 300.34Z" fill="#1F161E"/>
<path fill-rule="evenodd" clip-rule="evenodd" d="M314.751 300.341C304.925 292.396 284.866 249.067 290.011 233.008C300.963 238.873 312.979 259.095 318.646 276.171C318.951 277.283 319.196 278.413 319.379 279.554L321.679 290.629L322.235 300.36L314.751 300.341Z" fill="#6F9CEB"/>
<path fill-rule="evenodd" clip-rule="evenodd" d="M321.459 300.341C318.143 297.511 317.085 289.135 317.056 286.009C317.003 280.175 317.856 275.875 322.604 269.457C327.353 263.039 326.087 252.391 332.392 245.207C338.697 238.023 342.874 236.02 350.355 236.02C357.837 236.02 360.22 248.766 360.176 251.973C360.09 264.91 352.333 266.743 347.601 272.914C344.166 277.394 343.898 281.06 342.857 283.154C337.281 294.441 332.749 298.685 329.395 300.342" fill="#918EF4"/>
<path d="M323.289 299.403C323.384 277.339 345.509 244.193 350.241 239.229" stroke="white" stroke-width="0.4" stroke-linecap="round" stroke-linejoin="round"/>
<path d="M324.48 289.376C322.032 286.572 319.808 278.623 320.14 276.559" stroke="white" stroke-width="0.4" stroke-linecap="round" stroke-linejoin="round"/>
<path d="M318.211 298.436C314.742 291.977 298.285 260.483 292.148 237.286" stroke="white" stroke-width="0.4" stroke-linecap="round" stroke-linejoin="round"/>
<path fill-rule="evenodd" clip-rule="evenodd" d="M329.416 300.339H339.726L331.107 334.069H308.044L299.56 300.339H329.416" fill="#B37361"/>
<path d="M292.718 289.028C297.744 289.39 304.067 289.632 308.528 292.828" stroke="white" stroke-width="0.4" stroke-linecap="round" stroke-linejoin="round"/>
<path fill-rule="evenodd" clip-rule="evenodd" d="M372.383 162.278C371.171 168.354 362.366 243.726 365.244 261.728C368.123 279.731 415.069 317.451 417.124 318.111C419.519 316.264 423.042 310.207 423.042 310.207C423.042 310.207 388.621 268.278 387.965 266.597C387.308 264.915 395.505 167.816 395.505 167.816L372.383 162.278Z" fill="#7472C1"/>
<path fill-rule="evenodd" clip-rule="evenodd" d="M428.442 175.995L393.32 326.523H381.492L393.479 169.491L428.442 175.995Z" fill="#AB8DE5"/>
<path fill-rule="evenodd" clip-rule="evenodd" d="M403.499 89.8107C408.348 89.8107 433.639 90.6716 438.209 100.025C442.778 109.378 438.472 152.616 435.631 154.288C434.099 155.189 433.681 154.313 433.236 156.143C432.79 157.972 428.445 175.992 428.445 175.992C425.685 176.073 385.457 169.704 372.392 162.259C372.469 160.186 373.102 154.809 373.102 154.396C371.367 155.141 369.269 155.297 368.694 154.396C363.596 146.285 371.194 104.004 376.646 95.4954C378.963 91.85 395.712 89.8358 403.499 89.8107Z" fill="#6F9CEB"/>
<path fill-rule="evenodd" clip-rule="evenodd" d="M420.149 155.456C421.337 155.456 431.566 163.008 430.689 166.718C431.407 163.738 433.669 154.53 433.669 154.53C432.697 154.726 421.022 155.472 420.149 155.456Z" fill="#1F161E"/>
<path fill-rule="evenodd" clip-rule="evenodd" d="M409.758 94.7447C409.758 96.3813 397.441 96.3813 397.441 94.7447V78.1314H409.758V94.7447Z" fill="#F8CDBA"/>
<path fill-rule="evenodd" clip-rule="evenodd" d="M402.692 82.0627C403.65 82.0627 409.758 84.8996 409.758 86.4828V78.1314C408.234 78.1314 402.692 82.0627 402.692 82.0627Z" fill="#1F161E"/>
<ellipse cx="401.005" cy="70.6857" rx="11.9816" ry="12.5903" fill="#F8CDBA"/>
<path fill-rule="evenodd" clip-rule="evenodd" d="M396.953 52.2808C390.801 52.2808 386.969 56.3387 386.969 61.5389C386.969 65.863 387.966 68.3103 389.139 68.929C389.881 64.7304 391.496 62.7871 392.832 61.9513C393.871 62.7871 395.649 64.8112 398.024 65.4353C400.399 66.0594 406.585 65.9383 411.582 69.755C413.215 68.1947 414.845 66.1652 414.845 63.7746C414.845 61.384 413.838 58.3834 407.922 56.6507C404.014 55.5072 403.468 52.2808 396.953 52.2808Z" fill="#1F161E"/>
<ellipse cx="389.81" cy="73.2782" rx="2.09852" ry="1.14785" fill="#FA9E9F"/>
<ellipse cx="403.008" cy="73.2782" rx="2.09852" ry="1.14785" fill="#FA9E9F"/>
<path d="M394.936 70.8973C394.544 71.4865 392.541 73.9579 394.654 74.9552" stroke="#1F161E" stroke-linecap="round"/>
<path d="M398.883 77.839C399.751 77.6148 400.506 77.0559 401 76.2733" stroke="#1F161E" stroke-linecap="round"/>
<ellipse cx="412.081" cy="72.1358" rx="2.7693" ry="2.90999" fill="#F8CDBA"/>
<path d="M420.427 114.584C420.211 117.363 419.367 131.096 419.684 132.904C415.665 134.374 378.862 152.713 372.495 154.726" stroke="#1F161E" stroke-linecap="round"/>
<path d="M377.684 110.249C376.835 113.36 373.981 127.481 375.988 134.036" stroke="#1F161E" stroke-linecap="round"/>
<path d="M387.079 148.303C388.996 149.721 407.363 158.26 432.759 155.038" stroke="#1F161E" stroke-linecap="round"/>
<path fill-rule="evenodd" clip-rule="evenodd" d="M385.322 134.041C386.553 134.247 382.538 130.877 380.263 132.133C377.988 133.389 374.922 139.06 375.549 140.374C375.72 140.857 376.09 141.233 376.556 141.395C377.022 141.558 377.532 141.489 377.944 141.21C378.561 140.792 383.175 133.678 385.322 134.041Z" fill="#F8CDBA"/>
<path fill-rule="evenodd" clip-rule="evenodd" d="M422.65 310.826C423.306 311.329 429.127 315.468 429.175 318.075C429.223 320.683 423.752 329.327 422.65 329.574C421.548 329.82 420.762 328.844 420.762 327.097C420.762 325.35 422.839 322.289 422.564 320.93C422.288 319.57 419.598 317.084 418.218 317.039" fill="#EBEBEB" fill-opacity="0.25098"/>
<path fill-rule="evenodd" clip-rule="evenodd" d="M392.196 326.523C392.196 327.723 392.857 335.242 391.534 335.941C390.211 336.641 375.619 337.054 374.958 336.359C374.297 335.664 373.895 334.2 374.479 333.782C375.064 333.364 380.71 332.176 381.474 331.623C382.601 330.203 383.121 328.358 382.911 326.523" fill="#EBEBEB" fill-opacity="0.25098"/>
<rect x="13.3298" y="270.683" width="92.6442" height="49.3804" fill="#B37361"/>
<path fill-rule="evenodd" clip-rule="evenodd" d="M151.616 247.541C152.019 250.058 158.85 307.603 159.957 308.554C161.064 309.506 172.815 311.615 173.821 310.034C174.023 307.517 174.3 267.385 174.923 263.795" fill="#1F161E"/>
<path fill-rule="evenodd" clip-rule="evenodd" d="M19.4385 235.534C14.7004 233.082 24.5794 281.683 50.5788 281.683C76.5782 281.683 120.342 240.065 127.428 240.065C143.069 240.065 180.097 272.335 183 272.335C185.223 269.999 189.669 265.912 189.669 264.28C189.669 262.649 154.217 201.353 127.69 201.353C117.405 201.367 30.1366 241.087 19.4385 235.534Z" fill="#7472C1"/>
<path fill-rule="evenodd" clip-rule="evenodd" d="M34.0699 236.362C39.268 235.124 45.7359 231.917 51.4603 228.639C35.885 233.986 23.1226 237.449 19.4385 235.536C16.9277 234.238 18.5185 247.246 24.4226 259.776C23.352 257.352 21.8288 239.299 34.0699 236.362Z" fill="#1F161E"/>
<path fill-rule="evenodd" clip-rule="evenodd" d="M45.5282 151.101C49.6245 151.216 70.9482 150.555 76.7931 156.407C81.1282 160.746 94.6103 198.064 96.689 211.168C87.6346 216.006 22.322 248.864 2.11453 234.417C1.66907 223.19 3.74371 178.563 16.963 155.158C21.7955 151.775 41.5907 150.995 45.5282 151.101Z" fill="white"/>
<path fill-rule="evenodd" clip-rule="evenodd" d="M53.8361 140.423H41.3758V154.489C41.3758 158.013 53.8361 157.98 53.8361 154.489V140.423Z" fill="#F8CDBA"/>
<path fill-rule="evenodd" clip-rule="evenodd" d="M41.38 148.915C41.38 147.355 45.495 143.433 48.0389 143.569C48.1012 141.832 42.2241 139.335 42.2241 139.335L41.3758 141.736L41.38 148.915Z" fill="#1F161E"/>
<path fill-rule="evenodd" clip-rule="evenodd" d="M66.881 140.423C67.1609 139.06 67.3022 137.671 67.3025 136.277C67.3025 125.896 59.5844 117.479 50.0554 117.479C40.5264 117.479 32.8083 125.896 32.8083 136.277C32.8083 137.665 32.9493 139.055 33.2289 140.418L66.881 140.423Z" fill="#1F161E"/>
<path fill-rule="evenodd" clip-rule="evenodd" d="M62.335 127.752C60.222 127.415 58.1141 125.668 56.6438 124.525C48.2601 130.979 42.8897 131.061 42.3093 131.061C41.7288 131.061 39.3676 134.626 38.2805 135.029L38.1849 134.969C39.0513 140.099 42.6037 144.274 47.3594 145.751C52.1152 147.228 57.2566 145.752 60.6377 141.94C64.0189 138.128 65.0584 132.635 63.3225 127.754C62.995 127.797 62.6636 127.797 62.3361 127.754L62.335 127.752Z" fill="#F8CDBA"/>
<ellipse cx="40.7144" cy="114.477" rx="5.08795" ry="5.34644" fill="#1F161E"/>
<path d="M42.9801 130.778C41.8354 130.831 40.9333 131.821 40.9333 133.025C40.9333 134.229 41.8354 135.22 42.9801 135.273" stroke="#1F161E" stroke-linecap="round"/>
<path d="M59.2885 131.065C59.9115 131.945 61.5303 133.491 59.2885 135.127" stroke="#1F161E" stroke-linecap="round"/>
<path d="M52.4904 136.305C52.4331 137.459 53.0829 138.522 54.105 138.948" stroke="#1F161E" stroke-linecap="round"/>
<ellipse cx="48.3172" cy="135.384" rx="1.97392" ry="1.07693" fill="#FA9E9F"/>
<ellipse cx="62.9913" cy="135.384" rx="1.97392" ry="1.07693" fill="#FA9E9F"/>
<path fill-rule="evenodd" clip-rule="evenodd" d="M76.3435 190L89.6573 186.399C90.9365 188.685 97.1646 211.142 97.1646 211.142L76.6135 220.245C76.8803 215.991 77.6892 196.509 76.3435 190Z" fill="#F8CDBA"/>
<path d="M29.6621 186.481C29.2072 190.249 28.4867 193.976 27.5065 197.632" stroke="#1F161E" stroke-linecap="round"/>
<path d="M76.3435 190.001C76.0227 187.337 74.1443 172.331 70.9441 164.432" stroke="#1F161E" stroke-linecap="round"/>
<path fill-rule="evenodd" clip-rule="evenodd" d="M76.3435 190L89.6573 186.399C90.9365 188.685 97.1646 211.142 97.1646 211.142L76.6135 220.245C76.8803 215.991 77.6892 196.509 76.3435 190Z" fill="#F8CDBA"/>
<path fill-rule="evenodd" clip-rule="evenodd" d="M183.398 271.146C183.695 271.649 187.661 276.764 189.065 276.82C190.469 276.875 198.992 270.809 198.618 269.509C198.244 268.21 192.898 269.056 191.978 268.598C190.622 267.7 189.487 266.477 188.668 265.029" fill="#1F161E"/>
<path fill-rule="evenodd" clip-rule="evenodd" d="M162.438 309.089C162.334 309.648 161.796 316.238 162.768 317.305C163.74 318.372 173.878 320.225 174.472 319.012C175.066 317.798 170.64 314.511 170.299 313.515C169.923 311.881 169.923 310.176 170.299 308.541" fill="#1F161E"/>
<path fill-rule="evenodd" clip-rule="evenodd" d="M146.537 212.553H101.423L112.164 182.645H157.278L146.537 212.553Z" fill="#969696"/>
<rect x="63.8303" y="211.426" width="45.1145" height="1.12712" fill="#969696"/>
<path fill-rule="evenodd" clip-rule="evenodd" d="M27.5065 197.636C26.6395 201.04 22.4279 215.64 24.1433 218.156C25.8586 220.672 68.8123 214.969 80.3059 211.209C83.233 210.202 85.4032 207.565 86.7011 207.222C90.1536 206.606 93.4923 208.825 94.4431 212.367C89.8577 214.703 23.5877 250.254 2.1166 234.432C-1.94129 231.377 5.17768 194.123 5.50372 192.245C9.12862 192.704 27.5065 197.636 27.5065 197.636Z" fill="#F8CDBA"/>
<path d="M76.9572 212.116C78.251 211.788 79.3817 211.476 80.3111 211.174C83.2382 210.167 85.4083 207.53 86.7063 207.187C90.1588 206.572 93.4975 208.79 94.4483 212.332" stroke="#1F161E" stroke-linecap="round"/>
</g>
</svg>