<svg width="193" height="50" viewBox="0 0 193 50" fill="none" xmlns="http://www.w3.org/2000/svg">
<path d="M26.7521 20.6208L29.6719 8.9406L35.5104 6.02081M26.7521 20.6208L35.5104 17.7L41.35 11.8604L35.5104 6.02081M26.7521 20.6208L35.5104 6.02081" stroke="white" stroke-linecap="round" stroke-linejoin="round"/>
<path d="M41.3511 11.8604L44.2709 23.5417M44.2709 23.5417V32.301L41.3511 41.0604L35.5115 43.9802L26.7511 38.1406M44.2709 23.5417L35.5115 17.7L32.5917 29.3802M44.2709 23.5417L32.5917 29.3802M26.7511 38.1406V20.6208L32.5917 29.3802M26.7511 38.1406L32.5917 29.3802" stroke="white" stroke-linecap="round" stroke-linejoin="round"/>
<path d="M26.7521 38.1396H35.5115L44.2708 32.3" stroke="white" stroke-linecap="round" stroke-linejoin="round"/>
<path d="M38.4313 26.4604L35.5104 38.1396L32.5907 29.3791M23.2479 20.6208L20.3281 8.9406L14.4896 6.02081M23.2479 20.6208L14.4896 17.7L8.65002 11.8604L14.4896 6.02081M23.2479 20.6208L14.4896 6.02081" stroke="white" stroke-linecap="round" stroke-linejoin="round"/>
<path d="M8.64892 11.8604L5.72913 23.5417M5.72913 23.5417V32.301L8.64892 41.0604L14.4885 43.9802L23.2489 38.1406M5.72913 23.5417L14.4885 17.7L17.4083 29.3802M5.72913 23.5417L17.4083 29.3802M23.2489 38.1406V20.6208L17.4083 29.3802M23.2489 38.1406L17.4083 29.3802" stroke="white" stroke-linecap="round" stroke-linejoin="round"/>
<path d="M23.2479 38.1396H14.4895L5.72913 32.3" stroke="white" stroke-linecap="round" stroke-linejoin="round"/>
<path d="M11.5687 26.4604L14.4885 38.1396L17.4083 29.3791" stroke="white" stroke-linecap="round" stroke-linejoin="round"/>
<path d="M54.448 37.5L62.26 17.06H65.312L73.124 37.5H70.66L63.8 18.992H63.744L56.912 37.5H54.448ZM58.06 31.872V29.828H69.54V31.872H58.06ZM83.4015 22.66C85.3429 22.66 86.8549 23.332 87.9375 24.676C89.0202 26.0013 89.5615 27.8493 89.5615 30.22C89.5615 32.5907 89.0202 34.448 87.9375 35.792C86.8549 37.1173 85.3429 37.78 83.4015 37.78C82.3375 37.78 81.3575 37.584 80.4615 37.192C79.5842 36.7813 78.8935 36.2307 78.3895 35.54H78.3335V43.38H76.1215V22.94H78.2495V24.9H78.3055C78.8282 24.1907 79.5375 23.64 80.4335 23.248C81.3482 22.856 82.3375 22.66 83.4015 22.66ZM82.9255 24.536C82.0482 24.536 81.2642 24.7227 80.5735 25.096C79.8829 25.4507 79.3322 25.9453 78.9215 26.58C78.5295 27.196 78.3335 27.924 78.3335 28.764V31.676C78.3335 32.4973 78.5295 33.2253 78.9215 33.86C79.3322 34.4947 79.8829 34.9987 80.5735 35.372C81.2642 35.7267 82.0482 35.904 82.9255 35.904C84.3629 35.904 85.4642 35.4187 86.2295 34.448C87.0135 33.4587 87.4055 32.0493 87.4055 30.22C87.4055 28.3907 87.0135 26.9907 86.2295 26.02C85.4642 25.0307 84.3629 24.536 82.9255 24.536ZM93.1293 37.5V22.94H95.2573L95.2853 25.992H95.3413C95.7707 25.3013 96.3213 24.7133 96.9933 24.228C97.6653 23.724 98.4307 23.3413 99.2893 23.08C100.148 22.8 101.053 22.66 102.005 22.66V24.62C100.773 24.62 99.6533 24.872 98.6453 25.376C97.6373 25.88 96.8347 26.552 96.2373 27.392C95.6587 28.232 95.3693 29.1747 95.3693 30.22V37.5H93.1293ZM109.926 37.78C107.593 37.78 105.791 37.1267 104.522 35.82C103.253 34.5133 102.618 32.6467 102.618 30.22C102.618 27.868 103.225 26.02 104.438 24.676C105.67 23.332 107.369 22.66 109.534 22.66C111.606 22.66 113.193 23.2947 114.294 24.564C115.395 25.8147 115.946 27.616 115.946 29.968C115.946 30.1547 115.946 30.3507 115.946 30.556C115.946 30.7613 115.937 30.9387 115.918 31.088H103.822V29.296H114.294L113.874 29.884C113.874 28.0733 113.51 26.72 112.782 25.824C112.054 24.928 110.971 24.48 109.534 24.48C108.003 24.48 106.827 24.9653 106.006 25.936C105.185 26.888 104.774 28.2507 104.774 30.024V30.584C104.774 32.3387 105.213 33.664 106.09 34.56C106.967 35.456 108.255 35.904 109.954 35.904C110.85 35.904 111.718 35.792 112.558 35.568C113.398 35.3253 114.154 34.98 114.826 34.532L115.302 36.296C114.593 36.7627 113.771 37.1267 112.838 37.388C111.923 37.6493 110.953 37.78 109.926 37.78ZM119.434 37.5V22.94H121.59V25.096H121.646C122.225 24.2933 122.953 23.6867 123.83 23.276C124.726 22.8653 125.734 22.66 126.854 22.66C128.627 22.66 129.934 23.192 130.774 24.256C131.614 25.3013 132.034 26.916 132.034 29.1V37.5H129.822V29.492C129.822 27.812 129.533 26.5707 128.954 25.768C128.375 24.9467 127.489 24.536 126.294 24.536C125.398 24.536 124.595 24.7413 123.886 25.152C123.195 25.544 122.645 26.0947 122.234 26.804C121.842 27.4947 121.646 28.2973 121.646 29.212V37.5H119.434ZM138.493 37.5V19.104H131.157V17.06H148.153V19.104H140.817V37.5H138.493ZM153.184 37.78C150.851 37.78 149.049 37.1267 147.78 35.82C146.511 34.5133 145.876 32.6467 145.876 30.22C145.876 27.868 146.483 26.02 147.696 24.676C148.928 23.332 150.627 22.66 152.792 22.66C154.864 22.66 156.451 23.2947 157.552 24.564C158.653 25.8147 159.204 27.616 159.204 29.968C159.204 30.1547 159.204 30.3507 159.204 30.556C159.204 30.7613 159.195 30.9387 159.176 31.088H147.08V29.296H157.552L157.132 29.884C157.132 28.0733 156.768 26.72 156.04 25.824C155.312 24.928 154.229 24.48 152.792 24.48C151.261 24.48 150.085 24.9653 149.264 25.936C148.443 26.888 148.032 28.2507 148.032 30.024V30.584C148.032 32.3387 148.471 33.664 149.348 34.56C150.225 35.456 151.513 35.904 153.212 35.904C154.108 35.904 154.976 35.792 155.816 35.568C156.656 35.3253 157.412 34.98 158.084 34.532L158.56 36.296C157.851 36.7627 157.029 37.1267 156.096 37.388C155.181 37.6493 154.211 37.78 153.184 37.78ZM169.297 37.78C167.71 37.78 166.347 37.4813 165.209 36.884C164.07 36.268 163.193 35.4 162.577 34.28C161.979 33.1413 161.681 31.788 161.681 30.22C161.681 28.652 161.979 27.308 162.577 26.188C163.193 25.0493 164.07 24.1813 165.209 23.584C166.347 22.968 167.71 22.66 169.297 22.66C170.081 22.66 170.827 22.744 171.537 22.912C172.246 23.0613 172.937 23.3133 173.609 23.668L173.189 25.46C172.554 25.1427 171.929 24.9093 171.313 24.76C170.697 24.6107 170.071 24.536 169.437 24.536C167.701 24.536 166.347 25.04 165.377 26.048C164.406 27.0373 163.921 28.428 163.921 30.22C163.921 31.9933 164.406 33.384 165.377 34.392C166.347 35.4 167.701 35.904 169.437 35.904C170.071 35.904 170.697 35.8293 171.313 35.68C171.929 35.5307 172.554 35.2973 173.189 34.98L173.609 36.772C172.937 37.108 172.246 37.36 171.537 37.528C170.827 37.696 170.081 37.78 169.297 37.78ZM177.868 37.5V17.06H180.08V24.9H180.136C180.696 24.172 181.414 23.6213 182.292 23.248C183.169 22.856 184.177 22.66 185.316 22.66C187.108 22.66 188.414 23.136 189.236 24.088C190.076 25.04 190.486 26.524 190.468 28.54V37.5H188.284V28.932C188.302 27.42 188.022 26.3093 187.444 25.6C186.865 24.8907 185.969 24.536 184.756 24.536C183.841 24.536 183.029 24.7227 182.32 25.096C181.629 25.4507 181.088 25.9453 180.696 26.58C180.304 27.196 180.098 27.924 180.08 28.764V37.5H177.868Z" fill="white"/>
</svg>